<?xml version="1.0" encoding="utf-8"?>
<!-- Generator: Adobe Illustrator 24.1.2, SVG Export Plug-In . SVG Version: 6.00 Build 0)  -->
<svg version="1.1" id="Layer_1" xmlns="http://www.w3.org/2000/svg" xmlns:xlink="http://www.w3.org/1999/xlink" x="0px" y="0px"
	 viewBox="0 0 494 220" style="enable-background:new 0 0 494 220;" xml:space="preserve">
<style type="text/css">
	.st0{fill:#9333EA;}
	.st1{fill:#FFFFFF;}
	.st2{fill:url(#SVGID_1_);}
	.st3{fill:none;stroke:#9333EA;stroke-width:7.0397;stroke-miterlimit:10;}
	.st4{fill:none;stroke:#9333EA;stroke-width:7.087;stroke-linecap:round;stroke-miterlimit:10;}
</style>
<g>
	<path class="st0" d="M384.2,217.3H110.8C51.3,217.3,3,169,3,109.5l0,0C3,50,51.3,1.7,110.8,1.7h273.4C443.7,1.7,492,50,492,109.5
		l0,0C492,169,443.7,217.3,384.2,217.3z"/>
	<circle class="st1" cx="382.5" cy="109.9" r="99"/>
	<g>
		<path class="st1" d="M100.4,66.3h15.9c6.1,0,11,1.7,14.6,5c3.6,3.4,5.4,7.7,5.4,13c0,5.6-1.8,10-5.4,13.2
			c-3.6,3.2-8.8,4.8-15.5,4.8h-14.9v-36H100.4z M109.3,72.9v22.8h5.9c3.8,0,6.7-1,8.7-3.1s3-4.8,3-8.3s-1-6.3-3.1-8.4
			c-2-2-5-3.1-8.8-3.1h-5.7V72.9z"/>
		<path class="st1" d="M161,66.3l16,36.1h-9.7l-3-7.1h-16.1l-2.7,7.1H136l14.6-36.1H161z M161.7,88.9l-5.8-14l-5.3,14H161.7z"/>
		<path class="st1" d="M185.5,102.3V85.5l-14.2-19.2h10.9l7.8,11.3l7.9-11.3h10.9l-14.2,19.2v16.8H185.5z"/>
		<path class="st1" d="M91.5,133.5l11.6-13.4h7.8v36.1h-9v-22.5L92.2,145h-1.3l-9.7-11.3v22.5h-9v-36.1H80L91.5,133.5z"/>
		<path class="st1" d="M138,119.6c6.1,0,11.1,1.9,14.9,5.6c3.8,3.7,5.7,8,5.7,12.9c0,5-1.9,9.3-5.8,13c-3.9,3.7-8.8,5.5-14.8,5.5
			c-6.1,0-11.1-1.8-14.9-5.5c-3.8-3.6-5.8-8-5.8-13c0-4.9,1.9-9.3,5.7-13C126.8,121.5,131.8,119.6,138,119.6z M138,149.1
			c3.4,0,6.2-1,8.2-3c2.1-2,3.1-4.7,3.1-8s-1-6-3.1-8s-4.8-3-8.2-3s-6.2,1-8.3,3c-2.1,2-3.1,4.7-3.1,8s1,5.9,3.1,8
			C131.8,148.1,134.6,149.1,138,149.1z"/>
		<path class="st1" d="M165.1,120.1H181c6.1,0,11,1.7,14.6,5c3.6,3.4,5.4,7.7,5.4,13c0,5.6-1.8,10-5.4,13.2
			c-3.6,3.2-8.8,4.8-15.5,4.8h-14.9v-36H165.1z M174,126.7v22.8h5.9c3.8,0,6.7-1,8.7-3.1s3-4.8,3-8.3s-1-6.3-3.1-8.4
			c-2-2-5-3.1-8.8-3.1L174,126.7L174,126.7z"/>
		<path class="st1" d="M234.2,149.5v6.6h-26.6V120h26.2v6.6h-17.2v7.6H233v6.6h-16.4v8.7L234.2,149.5L234.2,149.5z"/>
	</g>
	
		<linearGradient id="SVGID_1_" gradientUnits="userSpaceOnUse" x1="325.5323" y1="169.0677" x2="444.4677" y2="50.1323" gradientTransform="matrix(1 0 0 -1 0 220)">
		<stop  offset="0" style="stop-color:#F1F0FF"/>
		<stop  offset="0.794" style="stop-color:#FFFFFF"/>
	</linearGradient>
	<circle class="st2" cx="385" cy="110.4" r="84.1"/>
	<g>
		<circle class="st3" cx="382.5" cy="109.9" r="22.9"/>
		<line class="st4" x1="382.5" y1="76" x2="382.5" y2="53.2"/>
		<line class="st4" x1="406.4" y1="85.9" x2="422.6" y2="69.8"/>
		<line class="st4" x1="416.3" y1="109.9" x2="439.2" y2="109.9"/>
		<line class="st4" x1="406.4" y1="133.8" x2="422.6" y2="149.9"/>
		<line class="st4" x1="382.5" y1="143.7" x2="382.5" y2="166.6"/>
		<line class="st4" x1="358.6" y1="133.8" x2="342.4" y2="149.9"/>
		<line class="st4" x1="348.7" y1="109.9" x2="325.8" y2="109.9"/>
		<line class="st4" x1="358.6" y1="85.9" x2="342.4" y2="69.8"/>
	</g>
</g>
</svg>
