<?xml version="1.0" encoding="utf-8"?>
<!-- Generator: Adobe Illustrator 24.1.2, SVG Export Plug-In . SVG Version: 6.00 Build 0)  -->
<svg version="1.1" id="Layer_1" xmlns="http://www.w3.org/2000/svg" xmlns:xlink="http://www.w3.org/1999/xlink" x="0px" y="0px"
	 viewBox="0 0 494 220" style="enable-background:new 0 0 494 220;" xml:space="preserve">
<style type="text/css">
	.st0{fill:#0F172A;}
	.st1{fill:#FFFFFF;}
	.st2{fill:url(#SVGID_1_);}
	.st3{fill:none;stroke:#0F172A;stroke-width:7.087;stroke-linecap:round;stroke-miterlimit:10;}
	.st4{fill:none;stroke:#0F172A;stroke-width:3.6235;stroke-linecap:round;stroke-miterlimit:10;}
	.st5{fill:none;stroke:#0F172A;stroke-width:2.9842;stroke-linecap:round;stroke-miterlimit:10;}
</style>
<g>
	<path class="st0" d="M110.8,218h273.4c59.5,0,107.8-48.3,107.8-107.8l0,0C492,50.7,443.7,2.4,384.2,2.4H110.8
		C51.3,2.4,3,50.7,3,110.2l0,0C3,169.7,51.3,218,110.8,218z"/>
	<circle class="st1" cx="112.5" cy="110.6" r="99"/>
	
		<linearGradient id="SVGID_1_" gradientUnits="userSpaceOnUse" x1="933.4927" y1="168.3676" x2="1052.4281" y2="49.4324" gradientTransform="matrix(1 0 0 -1 -880.9604 220)">
		<stop  offset="0" style="stop-color:#F1F0FF"/>
		<stop  offset="0.794" style="stop-color:#FFFFFF"/>
	</linearGradient>
	<circle class="st2" cx="112" cy="111.1" r="84.1"/>
	<g>
		<path class="st1" d="M290.5,72.4v34.7h-7.3L264,84.9v22.2h-8.6V72.4h7.9l18.5,21.2V72.4H290.5z"/>
		<path class="st1" d="M307.2,72.4v34.7h-8.6V72.4H307.2z"/>
		<path class="st1" d="M348.3,74.8v7.6c-4.4-2.1-8.7-3.2-13-3.2c-4.1,0-7.2,1-9.4,3.1c-2.2,2.1-3.3,4.7-3.3,7.8c0,3,1.1,5.5,3.3,7.4
			c2.2,1.9,5.1,2.8,8.7,2.8c1.9,0,3.8-0.4,5.7-1.2v-4h-5v-6.4H349v14.2c-1.4,1.4-3.5,2.5-6.3,3.4s-5.6,1.3-8.3,1.3
			c-6,0-11-1.7-14.9-5s-5.8-7.6-5.8-12.7c0-5.3,1.9-9.6,5.8-12.9s8.9-5,15.1-5C339.7,72,344.3,72.9,348.3,74.8z"/>
		<path class="st1" d="M391.1,72.4v34.7h-8.6v-14h-17.3v14h-8.6V72.4h8.6v13.9h17.3V72.4H391.1z"/>
		<path class="st1" d="M430.2,72.4v6.4h-12.6v28.3H409V78.8h-12.6v-6.4H430.2z"/>
		<path class="st1" d="M282.8,137l11.1-12.9h7.5v34.7h-8.6v-21.6l-9.4,10.9h-1.3l-9.4-10.9v21.6h-8.6v-34.7h7.5L282.8,137z"/>
		<path class="st1" d="M327.5,123.7c5.9,0,10.7,1.8,14.3,5.4c3.7,3.6,5.5,7.7,5.5,12.4c0,4.8-1.9,9-5.6,12.5s-8.5,5.3-14.3,5.3
			c-5.9,0-10.7-1.8-14.3-5.3c-3.7-3.5-5.5-7.7-5.5-12.5c0-4.7,1.8-8.9,5.5-12.5C316.8,125.5,321.6,123.7,327.5,123.7z M327.5,152.1
			c3.3,0,5.9-1,7.9-2.9s3-4.5,3-7.7s-1-5.7-3-7.7c-2-1.9-4.6-2.9-7.9-2.9s-5.9,1-8,2.9c-2,1.9-3,4.5-3,7.7s1,5.7,3,7.7
			C321.6,151.1,324.2,152.1,327.5,152.1z"/>
		<path class="st1" d="M353.6,124.2h15.3c5.9,0,10.6,1.6,14,4.9c3.4,3.2,5.2,7.4,5.2,12.5c0,5.4-1.7,9.6-5.2,12.7
			c-3.5,3.1-8.5,4.6-14.9,4.6h-14.3v-34.7H353.6z M362.2,130.5v22h5.6c3.7,0,6.5-1,8.4-3s2.9-4.7,2.9-8c0-3.4-1-6.1-2.9-8.1
			c-2-2-4.8-2.9-8.5-2.9H362.2z"/>
		<path class="st1" d="M420,152.5v6.4h-25.6v-34.7h25.2v6.4H403v7.3h15.8v6.4H403v8.3L420,152.5L420,152.5z"/>
	</g>
	<g>
		<path class="st3" d="M132,144c-5.1,7.8-18.9,14.8-30.9,14.8c-24.2,0-43.8-19.6-43.8-43.8s20.9-40.8,41.8-39.8
			c-9.9,11.9-14.9,23.9-10.2,40C94,132.8,115.5,143.3,132,144z"/>
		<polygon class="st4" points="151.3,113.6 146.7,101 134.4,96.6 146.6,90.9 151.3,79.7 155.9,90.9 168.2,96.6 155.7,101.1 		"/>
		<polygon class="st5" points="128.4,80.7 125.7,73.3 118.5,70.8 125.7,67.4 128.4,60.8 131.1,67.4 138.4,70.8 131,73.4 		"/>
	</g>
</g>
</svg>
